<mxfile host="app.diagrams.net" modified="2020-10-29T21:48:11.137Z" agent="5.0 (X11)" etag="rvA7N_BU9GQ94JGQJdZ4" version="13.8.7" type="github">
  <diagram id="Ub3CRWuhtsVVPK6uuvVO" name="Page-1">
    <mxGraphModel dx="868" dy="483" grid="1" gridSize="10" guides="1" tooltips="1" connect="1" arrows="1" fold="1" page="1" pageScale="1" pageWidth="850" pageHeight="1100" math="0" shadow="0">
      <root>
        <mxCell id="0" />
        <mxCell id="1" parent="0" />
        <mxCell id="rz1Y68zRAUJVD6hLimr7-1" value="" style="whiteSpace=wrap;html=1;aspect=fixed;" vertex="1" parent="1">
          <mxGeometry x="240" y="110" width="80" height="80" as="geometry" />
        </mxCell>
      </root>
    </mxGraphModel>
  </diagram>
</mxfile>
